<svg width="30" height="29" viewBox="0 0 30 29" fill="none" xmlns="http://www.w3.org/2000/svg">
<ellipse cx="15" cy="14.5" rx="15" ry="14.5" fill="#A66004"/>
<path d="M11.864 12.76C11.6993 12.4567 11.461 12.227 11.149 12.071C10.8457 11.9063 10.486 11.824 10.07 11.824C9.35067 11.824 8.77433 12.0623 8.341 12.539C7.90767 13.007 7.691 13.6353 7.691 14.424C7.691 15.2647 7.91633 15.9233 8.367 16.4C8.82633 16.868 9.45467 17.102 10.252 17.102C10.798 17.102 11.2573 16.9633 11.63 16.686C12.0113 16.4087 12.2887 16.01 12.462 15.49H9.641V13.852H14.477V15.919C14.3123 16.4737 14.0307 16.9893 13.632 17.466C13.242 17.9427 12.7437 18.3283 12.137 18.623C11.5303 18.9177 10.8457 19.065 10.083 19.065C9.18167 19.065 8.37567 18.87 7.665 18.48C6.963 18.0813 6.41267 17.531 6.014 16.829C5.624 16.127 5.429 15.3253 5.429 14.424C5.429 13.5227 5.624 12.721 6.014 12.019C6.41267 11.3083 6.963 10.758 7.665 10.368C8.367 9.96933 9.16867 9.77 10.07 9.77C11.162 9.77 12.0807 10.0343 12.826 10.563C13.58 11.0917 14.0783 11.824 14.321 12.76H11.864ZM21.7793 19L18.7113 14.97V19H16.4883V9.874H18.7113V13.878L21.7533 9.874H24.3663L20.8303 14.346L24.4963 19H21.7793Z" fill="white"/>
</svg>
