<svg width="16" height="18" viewBox="0 0 16 18" fill="none" xmlns="http://www.w3.org/2000/svg">
<path d="M15.0043 1.11125H10.8364L10.4891 0.486172C10.3502 0.208359 10.0723 0 9.75973 0H5.76554C5.45295 0 5.17509 0.208359 5.03616 0.486172L4.72357 1.11125H0.555714C0.243125 1.11125 0 1.38906 0 1.66688V2.77813C0 3.09066 0.243125 3.33375 0.555714 3.33375H15.0043C15.2821 3.33375 15.56 3.09066 15.56 2.77813V1.66688C15.56 1.38906 15.2821 1.11125 15.0043 1.11125ZM1.8408 16.2173C1.87554 17.1202 2.60491 17.78 3.50795 17.78H12.0173C12.9204 17.78 13.6497 17.1202 13.6845 16.2173L14.4486 4.445H1.11143L1.8408 16.2173Z" fill="#343A40"/>
<path d="M15.0043 1.11125H10.8364L10.4891 0.486172C10.3502 0.208359 10.0723 0 9.75973 0H5.76554C5.45295 0 5.17509 0.208359 5.03616 0.486172L4.72357 1.11125H0.555714C0.243125 1.11125 0 1.38906 0 1.66688V2.77813C0 3.09066 0.243125 3.33375 0.555714 3.33375H15.0043C15.2821 3.33375 15.56 3.09066 15.56 2.77813V1.66688C15.56 1.38906 15.2821 1.11125 15.0043 1.11125ZM1.8408 16.2173C1.87554 17.1202 2.60491 17.78 3.50795 17.78H12.0173C12.9204 17.78 13.6497 17.1202 13.6845 16.2173L14.4486 4.445H1.11143L1.8408 16.2173Z" stroke="black"/>
</svg>
