<svg width="34" height="29" viewBox="0 0 34 29" fill="none" xmlns="http://www.w3.org/2000/svg">
<ellipse cx="17" cy="14.5" rx="17" ry="14.5" fill="#A66004"/>
<path d="M13.864 13.76C13.6993 13.4567 13.461 13.227 13.149 13.071C12.8457 12.9063 12.486 12.824 12.07 12.824C11.3507 12.824 10.7743 13.0623 10.341 13.539C9.90767 14.007 9.691 14.6353 9.691 15.424C9.691 16.2647 9.91633 16.9233 10.367 17.4C10.8263 17.868 11.4547 18.102 12.252 18.102C12.798 18.102 13.2573 17.9633 13.63 17.686C14.0113 17.4087 14.2887 17.01 14.462 16.49H11.641V14.852H16.477V16.919C16.3123 17.4737 16.0307 17.9893 15.632 18.466C15.242 18.9427 14.7437 19.3283 14.137 19.623C13.5303 19.9177 12.8457 20.065 12.083 20.065C11.1817 20.065 10.3757 19.87 9.665 19.48C8.963 19.0813 8.41267 18.531 8.014 17.829C7.624 17.127 7.429 16.3253 7.429 15.424C7.429 14.5227 7.624 13.721 8.014 13.019C8.41267 12.3083 8.963 11.758 9.665 11.368C10.367 10.9693 11.1687 10.77 12.07 10.77C13.162 10.77 14.0807 11.0343 14.826 11.563C15.58 12.0917 16.0783 12.824 16.321 13.76H13.864ZM23.7793 20L20.7113 15.97V20H18.4883V10.874H20.7113V14.878L23.7533 10.874H26.3663L22.8303 15.346L26.4963 20H23.7793Z" fill="white"/>
</svg>
